<svg id="svg" version="1.1" viewBox="0 0 300 300" width="300" height="300" xmlns="http://www.w3.org/2000/svg"><svg xmlns="http://www.w3.org/2000/svg"><defs><clipPath id="clip-1"><rect x="0" y="0" transform="scale(0.14648,0.14648)" width="2048" height="2048" fill="none"/></clipPath></defs><g clip-path="url(#clip-1)" fill="none" fill-rule="nonzero" stroke="none" stroke-width="1" stroke-linecap="butt" stroke-linejoin="miter" stroke-miterlimit="10" stroke-dasharray="" stroke-dashoffset="0" font-family="none" font-weight="none" font-size="none" text-anchor="none" style="mix-blend-mode: normal"><path d="M168.75,126.97983c0.53027,0.10474 1.0415,0.22954 1.51318,0.50566c2.75098,1.61074 6.67969,6.69697 8.63086,9.35552c0.93896,1.28071 1.91309,3.06519 3.19775,3.99888c1.08398,0.78735 4.22168,0.31963 5.59717,0.33267c1.00195,0.00938 2.0376,-0.02095 3.03662,0.05771c1.34912,0.10635 3.42041,0.83086 4.70508,0.49043c2.17822,-0.57715 9.95654,-12.26997 14.36572,-12.84771c0.72803,-0.09536 1.5249,0.0772 2.09033,0.5666c1.71533,1.48652 1.3916,7.21729 1.38574,9.36768c-0.00879,2.95269 -0.1377,5.90376 -0.38818,8.84604c-0.15674,2.02588 -0.78516,5.17969 -0.45996,7.04883c0.31787,1.82813 1.64063,3.91553 2.37305,5.66162c2.20605,5.26465 3.71777,10.75781 4.02832,16.47656c0.76758,14.12549 -5.30859,27.36328 -14.64404,37.70068c-2.56787,2.88135 -5.47119,5.68652 -8.62207,7.92334c-1.22168,0.86572 -2.68652,1.64355 -4.23193,1.32861c-0.97412,-0.19922 -1.89111,-0.9375 -2.43311,-1.75488c-2.11084,-3.1875 2.29248,-6.2168 4.04004,-8.36719c1.43555,-1.76514 2.65723,-3.78955 3.12158,-6.04248c0.59033,-2.8667 -0.26514,-5.75391 -1.85889,-8.14746c-2.9209,-4.38428 -7.32275,-6.99756 -12.51855,-7.64941c-2.27637,-0.28418 -4.55713,-0.29297 -6.81738,-0.75146c-5.87695,-1.19238 -11.12842,-4.0957 -14.46973,-9.20215c-1.26855,-1.93945 -2.05957,-4.14844 -2.59131,-6.39551c-1.66699,-7.02832 -0.28125,-13.53076 3.03223,-19.84131c1.20117,-2.28809 3.51855,-5.43311 4.0957,-7.79004c0.49365,-2.01826 0.3252,-4.3355 0.36914,-6.41265c0.06738,-3.24829 0.22998,-6.70854 0.90381,-9.89238c0.38232,-1.80864 0.91992,-3.5146 2.54883,-4.56621zM178.74316,183.4292c2.625,-0.0835 5.33936,-0.97412 7.16016,-2.95166c0.53174,-0.57715 1.0415,-1.3916 0.97998,-2.20898c-0.03662,-0.48633 -0.15234,-1.00195 -0.53027,-1.3374c-0.28711,-0.25195 -0.75586,-0.26514 -1.11621,-0.21094c-3.25928,0.48193 -5.3584,4.2583 -8.96777,1.79297c-0.65625,-0.45117 -1.21436,-1.02979 -1.64355,-1.70068c-0.01904,-0.75586 -0.11133,-1.58936 0.19482,-2.2998c0.67529,-1.56152 4.11475,-3.84961 2.27344,-5.64551c-1.14404,-1.11768 -3.74268,-1.16162 -5.27051,-1.11914c-0.21387,0.00586 -0.25928,0.01465 -0.44531,0.03809c-0.96973,0.07178 -2.4126,0.1377 -3.04687,0.99609c-0.33838,0.45703 -0.38525,0.93164 -0.27393,1.4707c0.52295,2.53857 3.44238,4.27002 1.67432,7.125c-0.24316,0.39404 -0.54199,0.6416 -0.99463,0.74854c-0.92578,0.21826 -1.91309,-0.53174 -2.59717,-1.05762c-0.6709,-0.51709 -1.45166,-1.37842 -2.35107,-1.31396c-0.45703,0.28271 -0.73096,0.60059 -0.86719,1.12061c-0.27832,1.07373 0.25928,2.2998 0.83057,3.18457c0.65332,1.01221 1.64063,2.05957 2.86963,2.29541c2.29395,0.44092 3.84082,-0.87451 5.86377,-0.70752c2.18408,0.18164 3.66211,1.72998 6.25781,1.78125zM188.81982,165.36475c1.19092,-0.61523 2.02295,-1.31982 2.42871,-2.64404c0.32959,-1.06934 0.2373,-2.31738 -0.30908,-3.30322c-0.47021,-0.84814 -1.2627,-1.47217 -2.19727,-1.73145c-0.57422,-0.15674 -1.23193,-0.08203 -1.8208,-0.05273c-1.17773,0.58447 -2.00244,1.3125 -2.43604,2.58984c-0.37061,1.08984 -0.30762,2.33496 0.24463,3.35303c0.47168,0.87305 1.28613,1.48242 2.24414,1.72998c0.61523,0.1582 1.22021,0.14355 1.8457,0.05859zM205.86475,176.48145c0.72363,-0.15234 1.47217,-0.28857 1.88379,-0.97705c0.2124,-0.35449 0.3999,-0.81885 0.31787,-1.23633c-0.09229,-0.46875 -0.45703,-0.7793 -0.86719,-0.97705c-1.78271,-0.86279 -6.01904,-0.43066 -8.12402,-0.39844c-0.76025,0.11133 -1.50879,0.14063 -1.99951,0.82178c-0.29736,0.41309 -0.39697,0.76318 -0.34131,1.27295c0.31641,0.62109 0.72803,0.87451 1.38135,1.08545c1.95264,0.62842 5.66162,0.59619 7.74902,0.40869zM169.08691,163.23779c1.0415,-0.59033 1.71533,-1.29346 2.0376,-2.46973c0.2915,-1.10596 0.1377,-2.28223 -0.42627,-3.27832c-0.4043,-0.69873 -1.17773,-1.41943 -1.98486,-1.60986c-0.40869,-0.09668 -0.8877,-0.05273 -1.30518,-0.03076c-1.15723,0.88916 -1.70947,1.68164 -1.93945,3.15234c-0.17285,1.0957 0.01318,2.42432 0.68555,3.33252c0.4292,0.58008 1.17041,0.99463 1.89551,1.03857c0.34424,0.02197 0.70313,-0.06445 1.03711,-0.13477zM204.70166,186.0542c0.42188,-0.38525 0.82031,-0.71924 0.81885,-1.34473c-0.00146,-0.66504 -0.56104,-1.23633 -1.0459,-1.62451c-1.34619,-1.0752 -6.9624,-3.85107 -8.58984,-3.8042c-0.43945,0.43506 -0.81006,0.82764 -0.78076,1.48975c0.03223,0.72656 0.65479,1.37842 1.20557,1.78564c1.68018,1.24072 6.35156,3.44824 8.39209,3.49805z" fill="#f08736"/><path d="M112.73276,72.57041c0.78823,-0.10635 1.67505,-0.07705 2.47544,-0.0832c8.94053,-0.0687 19.0853,3.5606 21.87524,12.91523c1.19194,3.99683 0.64966,7.87793 3.69258,11.16401c4.69321,5.06807 11.71714,5.71641 15.71616,9.62578c-2.69092,-0.02974 -6.66064,-0.74238 -9.09229,0.51475c-0.7002,0.36182 -1.21538,0.93105 -1.44478,1.68984c-0.20757,0.68613 -0.18647,1.49004 -0.10532,2.19448c0.42246,3.66797 3.38848,3.49966 4.21318,5.34434c0.55957,1.25479 -0.01465,2.98477 -0.54346,4.17144c-1.33447,3.00161 -4.19707,5.45757 -7.23706,6.62227c-5.19214,1.98911 -11.7668,0.54668 -15.65244,-3.45381c-1.11973,-1.15283 -2.34595,-3.52339 -3.82075,-4.11855c-0.60161,-0.24287 -1.23018,-0.26001 -1.81567,0.03281c-0.63853,0.31934 -1.26855,0.84404 -1.49077,1.54614c-1.04839,3.31216 3.40107,5.53872 4.52886,7.93403c-0.54712,0.54375 -4.74316,0.68569 -5.88354,0.98013c-2.07891,0.53687 -3.90586,1.47642 -5.73765,2.5752c-8.14277,5.02163 -15.76992,13.55859 -20.36411,21.95684c-0.7853,1.44727 -1.5186,2.9209 -2.19858,4.4209c-0.55986,1.25684 -1.03315,2.64111 -1.8019,3.78662c-0.33193,0.1626 -0.25854,0.12158 -0.57305,0.01465c-0.42832,-0.52295 -0.54419,-1.08545 -0.60981,-1.74902c-0.12041,-1.21875 -0.04028,-2.50781 -0.03677,-3.73535l0.01567,-7.08545c-0.00806,-6.4478 -0.25488,-12.9832 0.07075,-19.41592c1.08223,0.16846 2.15127,0.3249 3.24902,0.32432c3.56147,-0.00146 6.93853,-1.26621 9.44678,-3.82896c8.15757,-8.33555 4.48418,-23.17515 3.32944,-33.41191c-0.42744,-3.78896 -0.45322,-7.54072 -0.53818,-11.34683c-0.07002,-3.1459 -1.0062,-3.53511 -3.06475,-5.51147c2.9918,-2.88047 9.42144,-3.75249 13.39775,-4.07329zM122.97231,101.475c2.39912,-0.28403 4.12734,-2.4394 3.88315,-4.84292c-0.24419,-2.40352 -2.37056,-4.16719 -4.77773,-3.96299c-1.59316,0.13521 -2.9896,1.11899 -3.65303,2.57373c-0.66343,1.45474 -0.49072,3.1541 0.45176,4.44565c0.94233,1.29155 2.50811,1.97446 4.09585,1.78652z" fill="#faf7ea"/><path d="M146.2166,46.35029c12.93721,-0.84976 27.10811,2.53506 38.62471,8.3458c17.7627,8.96396 31.64209,24.19292 37.86035,43.20366c1.52344,4.65776 2.67627,9.62461 3.14502,14.50649c0.34424,3.58037 0.30322,7.1395 0.30176,10.73188l-0.00732,12.25166l0.00879,14.75229c0.00732,2.06982 0.15674,4.1748 0.08936,6.24023c-0.0249,0.71191 -0.06299,1.88086 -0.45557,2.47266c-0.34863,0.52588 -0.90088,0.81445 -1.51318,0.91553c-0.95215,0.15674 -1.91895,-0.1377 -2.67187,-0.72803c-1.03125,-0.81006 -1.42383,-1.92187 -1.63184,-3.17285c-0.54492,-3.28418 -0.20068,-7.34473 -0.20215,-10.72559l-0.01025,-18.2417c-0.00146,-4.90415 0.13477,-9.83862 -0.49951,-14.71318c-0.18018,-1.4376 -0.41162,-2.86816 -0.69287,-4.2895c-3.34424,-17.39092 -14.13721,-32.75171 -28.74756,-42.60806c-20.41406,-13.77114 -45.58579,-15.77241 -68.4123,-7.01851c-3.12993,1.20029 -6.27554,2.65312 -9.18047,4.32876c-1.30298,0.75161 -3.08467,2.5519 -4.53779,2.76138c-0.77329,0.11147 -1.81479,-0.1519 -2.42886,-0.63501c-0.77607,-0.6104 -1.21421,-1.53838 -1.27808,-2.51616c-0.05479,-0.83862 0.20874,-1.55522 0.76802,-2.17573c1.58203,-1.75503 4.10742,-3.01567 6.18223,-4.12427c10.9144,-5.83213 22.99922,-8.72593 35.2894,-9.56177z" fill="#6b5b96"/><path d="M133.53032,135.9498c0.56982,0.00586 1.22256,0.11191 1.72925,0.38101c0.70854,0.37617 1.35879,1.1915 1.53706,1.97666c0.22881,1.00854 -0.19731,1.9875 -0.74883,2.81206c-1.31133,1.96011 -3.29429,3.74663 -4.82739,5.57285c-4.01074,4.77686 -7.98398,9.62109 -11.33584,14.89453c-6.52266,10.26123 -10.8019,22.02393 -8.01504,34.27295c4.6645,20.50195 25.3541,36.12744 44.97422,41.07568c2.01709,0.50977 4.10742,0.97266 6.17871,1.18213c1.62891,0.16553 3.31934,0.10547 4.93213,0.35742c0.58301,0.09082 1.18213,0.22559 1.67725,0.5625c0.73828,0.50244 1.24805,1.38428 1.38428,2.26025c0.1377,0.88184 -0.14355,1.76953 -0.71338,2.45215c-0.62842,0.75146 -1.43408,0.83496 -2.35693,0.90234c-9.52295,0.29443 -18.98291,-2.73193 -27.4415,-6.91553c-14.97319,-7.40771 -28.48608,-19.79004 -33.88301,-35.93115c-4.00884,-11.98828 -2.34609,-24.75293 3.21533,-35.94287c1.74932,-3.52002 3.72129,-6.92285 5.90376,-10.19092c2.65151,-3.94629 13.84497,-18.40063 17.78994,-19.72207z" fill="#6b5b96"/><path d="M148.25098,138.88813c0.44385,0.00322 0.86133,0.029 1.28467,0.16919c0.89648,0.29604 1.8208,1.07798 2.22656,1.93506c0.49512,1.04429 0.1084,2.09077 -0.50098,2.98872c-0.70166,1.03228 -1.69922,1.90605 -2.54297,2.82993c-1.13818,1.2627 -2.25161,2.54883 -3.33926,3.85693c-6.73184,7.97314 -14.69663,17.40088 -18.44985,27.26074c-2.57886,6.77344 -2.74307,13.5293 0.25093,20.19434c6.7478,15.01758 25.61045,27.15381 42.0416,26.90479c2.57959,-0.03809 5.15918,-0.45264 7.67285,-1.021c0.96094,-0.2168 1.91309,-0.6123 2.88867,-0.74268c0.52441,-0.07031 1.03418,-0.01172 1.52197,0.19043c0.71777,0.2959 1.25391,0.86279 1.53809,1.58203c0.30176,0.76172 0.39258,1.875 0.04834,2.63818c-0.47021,1.04004 -1.49707,1.48975 -2.4917,1.87207c-9.79395,3.44238 -20.42871,2.32471 -29.84912,-1.70361c-12.5439,-5.36133 -24.82676,-15.24756 -29.97261,-28.18799c-3.44487,-8.66309 -2.54458,-17.91064 1.12661,-26.33203c1.49004,-3.41748 3.35918,-6.7002 5.39531,-9.82031c2.97407,-4.55566 16.73892,-22.88379 21.15088,-24.61479z" fill="#6b5b96"/><path d="M120.33149,135.68672c0.52793,-0.04028 0.84829,-0.07998 1.27222,0.24902c0.66592,1.57705 -3.06167,4.96069 -4.05146,6.13403c-9.33867,11.06938 -17.67993,23.23345 -19.98486,37.83647c-0.59224,3.75293 -0.86177,7.68604 -0.55151,11.47412c1.65894,20.26025 16.38032,37.62598 32.86743,48.26367c1.94473,1.25537 3.96958,2.50635 6.03984,3.54053c1.54277,0.77051 3.2373,1.33301 4.70376,2.23975c0.54565,0.33838 1.06729,0.74414 1.43101,1.28027c0.47695,0.70605 0.63208,1.58203 0.42715,2.40967c-0.18604,0.72217 -0.68467,1.48242 -1.3396,1.85449c-1.15635,0.65625 -2.0814,0.53906 -3.31729,0.19189c-2.59014,-1.06055 -5.14219,-2.34814 -7.57617,-3.73096c-17.19536,-9.77344 -32.69399,-25.93799 -38.01138,-45.36621c-4.08999,-14.94287 -1.36904,-31.42236 6.29502,-44.78906c4.05264,-7.06787 9.15791,-13.10244 15.64614,-18.04526c1.76631,-1.34575 3.98701,-2.95752 6.14971,-3.54243z" fill="#6b5b96"/><path d="M147.16846,60.99961c2.20313,-0.16948 4.49707,0.03853 6.69287,0.23276c5.70117,0.50435 11.18408,1.38398 16.62305,3.20464c15.31055,5.12388 28.75049,16.42441 35.96045,30.90132c3.09668,6.12085 5.06396,12.74971 5.80957,19.56855c0.15967,1.5126 0.41748,3.43491 -0.11572,4.89448c-0.29004,0.79688 -0.86426,1.46733 -1.66406,1.77861c-0.90088,0.35054 -2.20605,0.36489 -3.0835,-0.07075c-0.45703,-0.22617 -0.854,-0.5083 -1.0459,-0.99243c-0.80127,-2.01973 -0.5874,-4.35557 -0.85693,-6.47813c-0.3457,-2.7208 -0.99756,-5.59834 -1.90137,-8.19258c-6.70752,-21.56162 -28.17334,-36.94468 -50.45947,-38.20737c-4.14404,-0.26294 -8.30391,-0.1333 -12.42393,0.38701c-2.6001,0.33208 -5.45186,1.2791 -8.0729,1.03945c-2.50254,-0.22881 -6.95303,-1.91206 -9.19717,-3.09463c5.81572,-3.20742 17.00771,-4.50513 23.73501,-4.97095z" fill="#6b5b96"/><path d="M75.09126,122.19639c0.13257,-0.01479 0.26528,-0.03091 0.39844,-0.03882c1.11313,-0.06592 2.10278,0.43433 2.90933,1.1792c0.84756,0.78267 1.00649,1.56592 1.1313,2.67188c0.2313,2.04873 0.12217,4.18096 0.11514,6.24141l-0.0126,9.45938l0.01948,25.96245c0.0082,5.00098 -0.10356,10.03418 0.11177,15.03076c0.42129,9.12891 2.68594,18.07764 6.65742,26.30713c2.30068,4.76953 5.10029,9.28271 8.3521,13.46191c1.26255,1.64795 2.81367,3.1626 3.94687,4.89258c0.38408,0.58594 0.5981,1.24219 0.61904,1.94531c0.02373,0.7998 -0.22632,1.54248 -0.78574,2.12256c-0.85034,0.8833 -1.88569,1.04443 -3.05596,1.0708c-2.71069,-1.27002 -6.21211,-6.38818 -8.04009,-8.95752c-7.99351,-11.09619 -12.81226,-24.16113 -13.93843,-37.7915c-0.37397,-4.88965 -0.20903,-9.81738 -0.20347,-14.71729l0.0104,-22.34033l-0.01772,-16.47261c0.00146,-2.40923 -0.26953,-5.80972 0.18999,-8.09868c0.18999,-0.946 0.82471,-1.42661 1.59272,-1.92861z" fill="#6b5b96"/><path d="M93.21255,81.77197c0.53525,-0.01567 0.99902,0.00601 1.43774,0.36255c0.39287,0.31934 0.58726,0.79702 0.6542,1.28892c0.14736,1.08267 0.06357,2.27256 0.08965,3.36855c0.0438,1.66948 0.13813,3.33721 0.28286,5.00098c0.35142,4.19912 1.14316,8.30757 1.65732,12.48296c0.64087,5.20386 1.56211,12.94277 -1.9645,17.30303c-0.95479,1.18052 -2.17925,2.10747 -3.73433,2.21323c-2.93804,0.19966 -5.2585,-1.7688 -7.34854,-3.54521c-2.73984,-2.30669 -7.82988,-6.87891 -8.68345,-10.35308c-0.86221,-3.50933 2.43589,-9.23394 4.16689,-12.22119c2.16108,-3.72949 9.50522,-14.85601 13.44214,-15.90073z" fill="#faf7ea"/><path d="M142.37227,166.42969c0.91509,-0.12598 1.64663,-0.09521 2.45698,0.39551c0.75718,0.45703 1.32524,1.16309 1.51787,2.0376c0.35991,1.63623 -0.65991,2.96777 -1.51392,4.24219c-3.31538,4.94531 -6.74312,10.76514 -5.47339,16.95996c1.32759,6.47754 7.18608,12.31494 12.54448,15.76758c8.61768,5.55176 19.68311,8.50488 28.02393,0.80273c1.42529,-1.31543 3.12451,-4.07812 5.0874,-4.44287c0.90234,-0.16699 1.9248,0.02783 2.66309,0.5874c0.65332,0.49512 1.09424,1.39014 1.15576,2.20166c0.12012,1.56299 -1.24512,2.92969 -2.17822,4.04004c-2.44629,2.50928 -4.98633,4.76514 -8.16943,6.30322c-6.92139,3.34424 -14.17236,2.91357 -21.2959,0.41895c-8.92529,-3.12598 -18.63457,-10.58496 -22.70039,-19.20264c-2.53726,-5.37744 -2.65488,-11.33789 -0.65405,-16.91016c1.14448,-3.1875 5.36543,-11.71436 8.53579,-13.20117z" fill="#6b5b96"/><path d="M147.01025,75.37207c11.93262,-0.45425 24.21973,3.22661 33.62695,10.63594c10.27148,8.09033 16.43848,19.1959 17.90771,32.18247c0.30176,2.67642 1.11475,9.62783 -0.59326,11.60947c-0.59619,0.69097 -1.35352,0.83408 -2.2207,0.9123c-1.40918,-0.30117 -2.50342,-0.90029 -2.98389,-2.33789c-0.69287,-2.06821 -0.4541,-5.60742 -0.59912,-7.84468c-0.58887,-9.09565 -4.10596,-17.75112 -10.38428,-24.41484c-6.90967,-7.32803 -16.0708,-12.13462 -26.02734,-13.65513c-2.59277,-0.38525 -5.17383,-0.44238 -7.78711,-0.51841c-1.4209,-2.05283 -2.89028,-4.03066 -4.17803,-6.17432c1.07534,-0.20815 2.14834,-0.30308 3.23906,-0.39492z" fill="#6b5b96"/><path d="M221.52393,198.49805c0.51416,-0.01172 1.02246,0.05713 1.50586,0.23584c0.96533,0.35742 1.77246,0.96094 2.18262,1.93066c0.83789,1.979 -0.7207,4.66113 -1.48535,6.4834c-8.17969,19.57471 -23.86816,35.05225 -43.55273,42.9668c-0.6416,0.04102 -1.19824,0.06299 -1.7959,-0.20654c-0.92285,-0.41748 -1.75342,-1.1792 -2.10645,-2.14453c-0.35303,-0.9668 -0.11865,-2.26465 0.6167,-3.00732c1.34766,-1.35937 6.48633,-3.30322 8.57959,-4.45752c2.92236,-1.5835 5.73779,-3.35742 8.42725,-5.31152c9.96826,-7.12646 17.26318,-16.39453 22.58936,-27.37207c1.23047,-2.53418 2.06689,-5.24561 3.29443,-7.771c0.36914,-0.75879 0.96826,-1.08838 1.74463,-1.34619z" fill="#6b5b96"/><path d="M152.06104,90.0397c3.2168,-0.19277 6.79834,0.88345 9.8042,1.97168c8.90332,3.22456 16.55713,9.74546 20.5752,18.39375c1.16455,2.50605 3.66797,10.5126 2.58545,13.16279c-0.33252,0.81812 -0.86279,1.17773 -1.64795,1.51758c-0.6709,0.12817 -1.34619,0.14238 -2.0127,-0.02227c-0.854,-0.21079 -1.51611,-0.74399 -1.93066,-1.51641c-0.7207,-1.34092 -0.71191,-3.13403 -0.99902,-4.60444c-0.59619,-3.04087 -1.85596,-6.01084 -3.50244,-8.62734c-3.22412,-5.12681 -8.39795,-9.39565 -14.03613,-11.60215c-2.13135,-0.83452 -4.35791,-1.33901 -6.58154,-1.85259c-1.38574,-0.32007 -2.88281,-0.81284 -3.64893,-2.10776c-0.46289,-0.7771 -0.59619,-1.70786 -0.36768,-2.58384c0.25488,-0.97749 0.9082,-1.63521 1.76221,-2.129z" fill="#6b5b96"/><path d="M148.59082,182.11084c0.85547,-0.08203 1.83252,-0.06592 2.53271,0.51563c1.05176,0.87305 2.02002,3.67969 2.78027,4.95264c1.03125,1.73145 2.31592,3.30029 3.81006,4.65381c2.41113,2.19727 5.6792,4.16162 8.82715,5.05811c1.24512,0.35449 2.58545,0.52588 3.78223,1.03125c0.8042,0.33838 1.48828,1.00342 1.79004,1.82959c0.29883,0.81445 0.2124,1.70361 -0.17432,2.47119c-0.44531,0.88184 -1.12061,1.26416 -2.02734,1.56592c-3.2124,0.11719 -6.55518,-0.83203 -9.44971,-2.1665c-5.91504,-2.72754 -11.42578,-8.146 -13.66113,-14.32764c-0.45908,-1.26855 -0.89956,-2.78174 -0.2417,-4.05908c0.42627,-0.82764 1.18066,-1.24072 2.03174,-1.5249z" fill="#6b5b96"/><path d="M158.89014,112.91968c0.26953,0.25576 0.26074,0.698 0.28125,1.04634c0.22998,3.7894 -1.01367,8.49653 -3.59033,11.36543c-1.50879,1.68062 -3.43945,2.5333 -5.68506,2.66294l-0.30176,-0.13608c-0.11572,-0.23467 -0.16992,-0.20229 -0.09229,-0.40078c0.15088,-0.39111 1.99512,-2.50078 2.45068,-3.277c1.48828,-2.53828 1.77246,-5.16826 2.4082,-7.9708c1.53369,-1.06479 2.97949,-2.24531 4.5293,-3.29004z" fill="#faf7ea"/></g></svg></svg>